# xmcd
#
# Track frame offsets:
#	150
#	21004
#	35787
#	55973
#	71171
#	87323
#	103904
#	122856
#	135431
#	152163
#	174422
#	193243
#
# Disc length: 2791 seconds
#
# Revision: 1
# Processed by: cddbd v1.5.2PL0 Copyright (c) Steve Scherf et al.
# Submitted via: EasyCDDAExtractor 10.0.6.1
#
DISCID=ad0ae50c
DTITLE=Rihanna - Good Girl Gone Bad
DYEAR=2007
DGENRE=Hip-Hop
TTITLE0=Umbrella
TTITLE1=Push Up On Me
TTITLE2=Don't Stop The Music
TTITLE3=Breakin' Dishes
TTITLE4=Shut Up And Drive
TTITLE5=Hate That I Love You
TTITLE6=Say It
TTITLE7=Sell Me Candy
TTITLE8=Lemme Get That
TTITLE9=Rehab
TTITLE10=Question Existing
TTITLE11=Good Girl Gone Bad
EXTD=
EXTT0=
EXTT1=
EXTT2=
EXTT3=
EXTT4=
EXTT5=
EXTT6=
EXTT7=
EXTT8=
EXTT9=
EXTT10=
EXTT11=
PLAYORDER=
